<svg width="30" height="30" viewBox="0 0 30 30" fill="none" xmlns="http://www.w3.org/2000/svg">
<rect width="30" height="30" rx="15" fill="#657981"/>
<path d="M17.7813 16.5C16.875 16.5 16.4688 17 15 17C13.5 17 13.0938 16.5 12.1875 16.5C9.875 16.5 8 18.4062 8 20.7187V21.5C8 22.3437 8.65625 23 9.5 23H20.5C21.3125 23 22 22.3437 22 21.5V20.7187C22 18.4062 20.0938 16.5 17.7813 16.5ZM15 16C17.4688 16 19.5 14 19.5 11.5C19.5 9.03125 17.4688 7 15 7C12.5 7 10.5 9.03125 10.5 11.5C10.5 14 12.5 16 15 16Z" fill="#393E46"/>
</svg>
