<svg width="14" height="15" viewBox="0 0 14 15" fill="none" xmlns="http://www.w3.org/2000/svg">
<path d="M13.1875 6.87467H12.4062C12.1198 4.27051 10.0625 2.21322 7.45829 1.92676V1.14551C7.45829 0.989258 7.30204 0.833008 7.14579 0.833008H6.52079C6.3385 0.833008 6.20829 0.989258 6.20829 1.14551V1.92676C3.57808 2.21322 1.52079 4.27051 1.23433 6.87467H0.479126C0.296834 6.87467 0.166626 7.03092 0.166626 7.18717V7.81217C0.166626 7.99446 0.296834 8.12467 0.479126 8.12467H1.23433C1.52079 10.7549 3.57808 12.8122 6.20829 13.0986V13.8538C6.20829 14.0361 6.3385 14.1663 6.52079 14.1663H7.14579C7.30204 14.1663 7.45829 14.0361 7.45829 13.8538V13.0986C10.0625 12.8122 12.1198 10.7549 12.4062 8.12467H13.1875C13.3437 8.12467 13.5 7.99446 13.5 7.81217V7.18717C13.5 7.03092 13.3437 6.87467 13.1875 6.87467ZM7.45829 11.8486V10.7288C7.45829 10.5726 7.30204 10.4163 7.14579 10.4163H6.52079C6.3385 10.4163 6.20829 10.5726 6.20829 10.7288V11.8486C4.28121 11.5622 2.77079 10.0518 2.48433 8.12467H3.60413C3.76038 8.12467 3.91663 7.99446 3.91663 7.81217V7.18717C3.91663 7.03092 3.76038 6.87467 3.60413 6.87467H2.48433C2.77079 4.97363 4.28121 3.46322 6.20829 3.17676V4.27051C6.20829 4.4528 6.3385 4.58301 6.52079 4.58301H7.14579C7.30204 4.58301 7.45829 4.4528 7.45829 4.27051V3.17676C9.35933 3.46322 10.8698 4.97363 11.1562 6.87467H10.0625C9.88017 6.87467 9.74996 7.03092 9.74996 7.18717V7.81217C9.74996 7.99446 9.88017 8.12467 10.0625 8.12467H11.1562C10.8698 10.0518 9.35933 11.5622 7.45829 11.8486ZM7.66663 7.49967C7.66663 7.05696 7.276 6.66634 6.83329 6.66634C6.36454 6.66634 5.99996 7.05696 5.99996 7.49967C5.99996 7.96842 6.36454 8.33301 6.83329 8.33301C7.276 8.33301 7.66663 7.96842 7.66663 7.49967Z" fill="white"/>
</svg>
