<svg width="26" height="26" viewBox="0 0 26 26" fill="none" xmlns="http://www.w3.org/2000/svg">
<path d="M21.9688 11.0312C21.3399 11.3516 20.5938 11.6094 19.7188 11.8125C19.418 12.4961 18.7617 13.2188 18 13.2188C17.4297 13.2188 16.9375 12.7031 16.5938 12.2812C15.4922 12.375 14.2969 12.4375 13 12.4375C11.6953 12.4375 10.5 12.3906 9.40627 12.3125C9.06252 12.7188 8.55861 13.2188 8.00002 13.2188C7.26955 13.2188 6.65627 12.5469 6.34377 11.9062C5.46096 11.7109 4.6719 11.457 4.03127 11.125C4.02346 11.4492 4.03127 21.6562 4.03127 21.6562C4.03127 21.6562 3.49221 12.0938 2.78127 12.0938C1.56252 12.0938 1.20315 12.5547 0.843771 12.9375C2.11e-05 13.8359 0.148459 15.1523 0.156271 15.625C0.16799 16.4688 0.402365 18.418 1.00002 20.3438C1.93362 23.3555 3.68752 25.9062 12.9688 25.9062C22.7852 25.9062 24.461 22.4023 24.875 21.25C25.4063 19.7695 25.836 17.5508 25.875 15.5312C25.8946 14.3594 25.711 13.5273 25.2188 12.8125C24.9141 12.3711 24.7031 12.0938 23.75 12.0938C23.0156 12.0938 21.9688 21.6562 21.9688 21.6562C21.9688 21.6562 21.9805 11.3516 21.9688 11.0312Z" fill="#657981"/>
<path opacity="0.35" d="M9.81253 1.09375C10.5157 0.296875 11.6328 0 13 0C14.3672 0 15.4844 0.296875 16.1875 1.09375C16.6914 1.66406 16.8672 2.34766 16.9375 3.09375H22.6875C23.336 3.09375 23.3946 3.25 23.5 3.5625C23.6914 4.11719 23.8477 5.0625 23.875 6.09375C23.9024 7.13281 23.8711 9.17969 19.7188 10.2188C19.4336 9.50781 18.7774 8.84375 18 8.84375C17.0391 8.84375 16.2383 9.76562 16.125 10.75C15.1875 10.8203 14.1758 10.8438 13 10.8438C11.836 10.8438 10.8047 10.8203 9.87503 10.75C9.76175 9.76562 8.96097 8.84375 8.00003 8.84375C7.21878 8.84375 6.53519 9.50391 6.25003 10.2188C2.07425 9.17969 2.06644 7.13672 2.09378 6.09375C2.12113 5.0625 2.27738 4.11719 2.46878 3.5625C2.57425 3.25 2.62894 3.09375 3.28128 3.09375H9.06253C9.13285 2.34766 9.30863 1.66406 9.81253 1.09375Z" fill="#657981"/>
</svg>
