<svg width="32" height="32" viewBox="0 0 32 32" fill="none" xmlns="http://www.w3.org/2000/svg">
<path opacity="0.35" d="M20.38 5.62932C15.6654 3.74799 11.4067 3.31465 10.8694 4.66132L4.05605 21.736C3.51871 23.0827 6.90538 25.7 11.62 27.5813C16.3347 29.4627 20.5934 29.896 21.1307 28.5493L27.944 11.4747C28.4814 10.128 25.0947 7.51065 20.38 5.62932Z" fill="#657981"/>
<path d="M18.6667 13.3333C20.1394 13.3333 21.3333 12.1394 21.3333 10.6667C21.3333 9.19391 20.1394 8 18.6667 8C17.1939 8 16 9.19391 16 10.6667C16 12.1394 17.1939 13.3333 18.6667 13.3333Z" fill="#657981"/>
<path d="M20 4.00001C20.7363 4.00001 21.3333 3.40306 21.3333 2.66668C21.3333 1.9303 20.7363 1.33334 20 1.33334C19.2636 1.33334 18.6666 1.9303 18.6666 2.66668C18.6666 3.40306 19.2636 4.00001 20 4.00001Z" fill="#657981"/>
<path d="M21.3333 2.66666H18.6666V10.6667H21.3333V2.66666Z" fill="#657981"/>
<path d="M27.9733 11.3333C27.964 11.3813 27.9613 11.4307 27.944 11.476L21.1306 28.5507C20.936 29.0373 20.2506 29.288 19.2386 29.3267C24.1253 29.24 28 28.084 28 26.6667V11.3333H27.9733Z" fill="#657981"/>
</svg>
