<svg width="32" height="32" viewBox="0 0 32 32" fill="none" xmlns="http://www.w3.org/2000/svg">
<path d="M4.1395 12H3.5H2.6665C2.2985 12 2 12.2985 2 12.6665C2 12.8765 2.099 13.074 2.2665 13.2C2.2665 13.2 3.105 13.587 3.826 13.991C4.2655 14.237 4.7395 14.4085 5.199 14.615C5.688 14.8345 5.923 15.3425 5.8725 15.898C5.84 16.252 5.7825 16.603 5.7085 16.9505C5.237 19.159 4.9995 22.4155 5 24.67C5 25.4065 5.5995 26 6.3355 26H11.5925C12.1105 26 12.618 25.7395 12.852 25.2775C13.0035 24.979 13.0365 24.648 12.96 24.3405C12.657 23.128 12.619 20.864 12.8495 19.6355L12.88 19.5H15.9875C17.657 19.5 19.055 18.235 19.221 16.5735L19.3385 15.4005C19.3895 14.8895 19.82 14.5 20.3335 14.5H28C29.1045 14.5 30 13.6045 30 12.5V12H4.1395ZM17.7285 16.4245C17.639 17.319 16.8865 18 15.9875 18H13.8405C13.5205 18 13.2825 17.703 13.3525 17.3905L13.7375 15.672C13.802 15.383 13.951 15.133 14.1505 14.936C14.3385 15.6265 14.7 16.2605 15.22 16.78C15.366 16.927 15.558 17 15.75 17C15.965 17 16.1805 16.908 16.3315 16.724C16.575 16.4275 16.533 15.977 16.264 15.703C15.9365 15.3695 15.713 14.949 15.596 14.5H17.369C17.665 14.5 17.896 14.7555 17.8665 15.05L17.7285 16.4245Z" fill="#657981"/>
<path d="M9.5 7.50001H6.5V6.09001C6.5 5.78101 6.7775 5.54601 7.082 5.59701L9.082 5.93051C9.3235 5.97051 9.5 6.17901 9.5 6.42351V7.50001Z" fill="#657981"/>
<path d="M25.5 7.50001H27.5V6.14051C27.5 5.81501 27.1945 5.57651 26.8785 5.65551L25.8785 5.90551C25.656 5.96101 25.5 6.16101 25.5 6.39051V7.50001Z" fill="#657981"/>
<path d="M30 8.5C30 7.6715 29.3285 7 28.5 7H5.5C4.3955 7 3.5 7.8955 3.5 9V12H27.5H30C30.5525 12 31 11.552 31 11V9.5C31 8.948 30.5525 8.5 30 8.5Z" fill="#48535B"/>
<path d="M7.15748 17.2615C6.87398 19.0695 6.61348 21.1155 6.52698 22.937C6.48648 23.79 7.17098 24.5 8.02448 24.5C8.56548 24.5 9.17848 24.5 9.73498 24.5C10.6105 24.5 11.288 23.7545 11.2265 22.8815C11.108 21.198 11.3435 19.4815 11.6995 17.816C11.899 16.881 11.191 16 10.235 16H8.63898C7.90198 16 7.27198 16.5335 7.15748 17.2615Z" fill="#48535B"/>
</svg>
