<svg width="18" height="21" viewBox="0 0 18 21" fill="none" xmlns="http://www.w3.org/2000/svg">
<path d="M18 5.5C18 4.04131 17.4205 2.64236 16.389 1.61091C15.3576 0.579463 13.9586 0 12.5 0C11.0413 0 9.64232 0.579463 8.61087 1.61091C7.57942 2.64236 6.99995 4.04131 6.99995 5.5C6.99995 6.95869 7.57942 8.35764 8.61087 9.38909C9.64232 10.4205 11.0413 11 12.5 11C13.9586 11 15.3576 10.4205 16.389 9.38909C17.4205 8.35764 18 6.95869 18 5.5ZM13 6V8.504C13 8.63661 12.9473 8.76379 12.8535 8.85755C12.7597 8.95132 12.6326 9.004 12.5 9.004C12.3673 9.004 12.2402 8.95132 12.1464 8.85755C12.0526 8.76379 12 8.63661 12 8.504V6H9.49495C9.36234 6 9.23517 5.94732 9.1414 5.85355C9.04763 5.75979 8.99495 5.63261 8.99495 5.5C8.99495 5.36739 9.04763 5.24021 9.1414 5.14645C9.23517 5.05268 9.36234 5 9.49495 5H12V2.5C12 2.36739 12.0526 2.24021 12.1464 2.14645C12.2402 2.05268 12.3673 2 12.5 2C12.6326 2 12.7597 2.05268 12.8535 2.14645C12.9473 2.24021 13 2.36739 13 2.5V5H15.496C15.6286 5 15.7557 5.05268 15.8495 5.14645C15.9433 5.24021 15.996 5.36739 15.996 5.5C15.996 5.63261 15.9433 5.75979 15.8495 5.85355C15.7557 5.94732 15.6286 6 15.496 6H13ZM12.5 18.782V12C13.005 12.0003 13.5084 11.9419 14 11.826V20.246C13.9998 20.384 13.9616 20.5192 13.8896 20.6368C13.8175 20.7545 13.7144 20.85 13.5916 20.9128C13.4688 20.9757 13.3311 21.0034 13.1935 20.9931C13.056 20.9827 12.9239 20.9346 12.812 20.854L7.00195 16.673L1.18995 20.853C1.07797 20.9336 0.94594 20.9817 0.808381 20.9921C0.670822 21.0024 0.533065 20.9747 0.410263 20.9118C0.287461 20.849 0.184372 20.7535 0.112335 20.6358C0.0402975 20.5182 0.00210302 20.383 0.00195312 20.245V5.25C0.00195312 4.38805 0.344363 3.5614 0.953856 2.9519C1.56335 2.34241 2.39 2 3.25195 2H7.02195C6.72221 2.46749 6.48391 2.97164 6.31295 3.5H3.25195C2.78782 3.5 2.34271 3.68437 2.01452 4.01256C1.68633 4.34075 1.50195 4.78587 1.50195 5.25V18.783L6.56295 15.141C6.69055 15.0492 6.84377 14.9998 7.00095 14.9998C7.15814 14.9998 7.31136 15.0492 7.43895 15.141L12.5 18.783V18.782Z" fill="#657981"/>
</svg>
