<svg width="32" height="32" viewBox="0 0 32 32" fill="none" xmlns="http://www.w3.org/2000/svg">
<path d="M20.8586 29.3333H11.1413C8.5533 29.3333 6.33863 27.476 5.8893 24.9267L4.98396 19.7973C3.77463 12.9467 9.04396 6.66666 16 6.66666C22.956 6.66666 28.2253 12.9467 27.016 19.7973L26.1106 24.9267C25.6613 27.476 23.4466 29.3333 20.8586 29.3333Z" fill="white"/>
<path opacity="0.35" d="M11.3334 17.3333H20.6667C21.7707 17.3333 22.6667 16.4387 22.6667 15.3333C22.6667 14.228 21.7707 13.3333 20.6667 13.3333H11.3334C10.2294 13.3333 9.33337 14.228 9.33337 15.3333C9.33337 16.4387 10.2294 17.3333 11.3334 17.3333Z" fill="#49C7EF"/>
<path d="M14.1334 5.33333H17.8667C18.3083 5.33333 18.6667 5.03511 18.6667 4.66667C18.6667 4.29822 18.3083 4 17.8667 4H14.1334C13.6918 4 13.3334 4.29822 13.3334 4.66667C13.3334 5.03511 13.6918 5.33333 14.1334 5.33333Z" fill="white"/>
<g opacity="0.35">
<path d="M28.0813 13.4147C28.8627 12.6347 28.8627 11.3667 28.0813 10.5867L24.0813 6.58667C23.3 5.80534 22.0347 5.80534 21.2533 6.58667C20.9373 6.90267 20.784 7.30267 20.724 7.71334C23.3947 8.95867 25.4613 11.224 26.4827 13.9653C26.544 13.9693 26.604 14 26.6667 14C27.1787 14 27.6907 13.8053 28.0813 13.4147Z" fill="white"/>
</g>
</svg>
